<?xml version="1.0" encoding="UTF-8"?>
<!DOCTYPE svg PUBLIC "-//W3C//DTD SVG 1.1//EN" "http://www.w3.org/Graphics/SVG/1.1/DTD/svg11.dtd">
<!-- Creator: CorelDRAW X6 -->
<svg xmlns="http://www.w3.org/2000/svg" xml:space="preserve" width="0.333331in" height="0.333331in" version="1.1" style="shape-rendering:geometricPrecision; text-rendering:geometricPrecision; image-rendering:optimizeQuality; fill-rule:evenodd; clip-rule:evenodd"
viewBox="0 0 333 333"
 xmlns:xlink="http://www.w3.org/1999/xlink">
 <defs>
  <style type="text/css">
   <![CDATA[
    .fil0 {fill:#1972A1}
   ]]>
  </style>
 </defs>
 <g id="Layer_x0020_1">
  <metadata id="CorelCorpID_0Corel-Layer"/>
  <path class="fil0" d="M266 46c-70,25 -61,110 -3,113 27,-18 31,0 42,6l17 10 -25 2c-11,1 -18,5 -21,21 -18,103 -119,112 -173,84 6,-1 12,-3 19,-5l-12 0c-2,-2 -4,-3 -6,-5l-33 0c-2,-2 -4,-3 -6,-5l80 0c6,-3 11,-7 16,-11l-74 0c-1,-1 -2,-3 -3,-4l-37 0c-2,-2 -4,-4 -5,-6l128 0c2,-3 4,-7 6,-11l-104 0c-1,-2 -2,-3 -3,-5l-39 0c-1,-1 -2,-3 -3,-5l40 0c0,0 0,-1 -1,-1l112 0c0,-4 0,-8 -1,-12l-116 0c0,-1 -1,-2 -1,-2l-41 0c-1,-2 -1,-4 -2,-6l41 0 0 -1 116 0c-1,-3 -3,-7 -5,-10l-78 8c-1,-3 -1,-6 -2,-9l-35 0c0,-1 0,-2 -1,-3l-42 0c0,-2 -1,-4 -1,-5l42 0 0 -1 35 0c0,-4 -1,-8 -1,-12l-35 0c0,-1 0,-2 0,-2l0 0 -42 0c0,-2 0,-4 0,-5l42 0c0,-1 0,-2 0,-3l35 0c0,-4 1,-8 1,-12l-35 0 0 -1 -41 0c0,-1 1,-3 1,-5l41 0c0,-1 0,-2 1,-3l36 0c0,-2 1,-3 1,-5l24 5 16 0c0,-4 1,-8 1,-12l-76 0 0 -1 -39 0c1,-1 1,-3 2,-4l39 0c1,-2 1,-3 2,-5l74 0c1,-4 1,-8 2,-11l-108 0c2,-2 3,-5 5,-7l36 0c1,-1 1,-2 2,-3l68 0c1,-4 3,-8 4,-12l-64 0 1 -1 -33 0c2,-2 4,-4 6,-6l32 0c1,-1 2,-2 3,-3l61 0c3,-4 6,-8 9,-12l-56 0 0 0 -28 0c3,-2 6,-4 9,-5l26 0c2,-1 4,-3 6,-4l53 0c6,-4 12,-7 19,-9l-69 0c14,-3 40,-8 52,-8 4,0 8,0 12,1 5,0 10,1 16,2l0 0c3,1 7,1 10,2l0 0c19,-2 39,2 57,5l1 0zm21 117c2,0 4,2 4,4 0,2 -2,4 -4,4 -2,0 -4,-2 -4,-4 0,-2 2,-4 4,-4z"/>
 </g>
</svg>
